<svg width="41" height="36" viewBox="0 0 41 36" fill="none" xmlns="http://www.w3.org/2000/svg">
<rect width="41" height="7.56923" fill="#293365"/>
<rect x="1.89258" y="7.56921" width="36.5846" height="20.8154" fill="url(#paint0_linear_624_181)"/>
<rect y="28.3845" width="41" height="7.56923" fill="#293365"/>
<path d="M26.8657 17.7701L16.6511 24.3019V11.2384L26.8657 17.7701Z" fill="#D9D9D9"/>
<rect x="1.89258" y="2.52307" width="5.04615" height="2.52308" fill="#DFE7F5"/>
<rect x="1.89258" y="2.52307" width="5.04615" height="2.52308" fill="#DFE7F5"/>
<rect x="1.89258" y="2.52307" width="5.04615" height="2.52308" fill="#DFE7F5"/>
<rect x="8.2002" y="2.52307" width="5.04615" height="2.52308" fill="#DFE7F5"/>
<rect x="8.2002" y="2.52307" width="5.04615" height="2.52308" fill="#DFE7F5"/>
<rect x="8.2002" y="2.52307" width="5.04615" height="2.52308" fill="#DFE7F5"/>
<rect x="14.5073" y="2.52307" width="5.04615" height="2.52308" fill="#DFE7F5"/>
<rect x="14.5073" y="2.52307" width="5.04615" height="2.52308" fill="#DFE7F5"/>
<rect x="14.5073" y="2.52307" width="5.04615" height="2.52308" fill="#DFE7F5"/>
<rect x="20.8154" y="2.52307" width="5.04615" height="2.52308" fill="#DFE7F5"/>
<rect x="20.8154" y="2.52307" width="5.04615" height="2.52308" fill="#DFE7F5"/>
<rect x="20.8154" y="2.52307" width="5.04615" height="2.52308" fill="#DFE7F5"/>
<rect x="27.123" y="2.52307" width="5.04615" height="2.52308" fill="#DFE7F5"/>
<rect x="27.123" y="2.52307" width="5.04615" height="2.52308" fill="#DFE7F5"/>
<rect x="27.123" y="2.52307" width="5.04615" height="2.52308" fill="#DFE7F5"/>
<rect x="33.4307" y="2.52307" width="5.04615" height="2.52308" fill="#DFE7F5"/>
<rect x="33.4307" y="2.52307" width="5.04615" height="2.52308" fill="#DFE7F5"/>
<rect x="33.4307" y="2.52307" width="5.04615" height="2.52308" fill="#DFE7F5"/>
<rect x="1.89258" y="30.9077" width="5.04615" height="2.52308" fill="#DFE7F5"/>
<rect x="1.89258" y="30.9077" width="5.04615" height="2.52308" fill="#DFE7F5"/>
<rect x="1.89258" y="30.9077" width="5.04615" height="2.52308" fill="#DFE7F5"/>
<rect x="8.2002" y="30.9077" width="5.04615" height="2.52308" fill="#DFE7F5"/>
<rect x="8.2002" y="30.9077" width="5.04615" height="2.52308" fill="#DFE7F5"/>
<rect x="8.2002" y="30.9077" width="5.04615" height="2.52308" fill="#DFE7F5"/>
<rect x="14.5073" y="30.9077" width="5.04615" height="2.52308" fill="#DFE7F5"/>
<rect x="14.5073" y="30.9077" width="5.04615" height="2.52308" fill="#DFE7F5"/>
<rect x="14.5073" y="30.9077" width="5.04615" height="2.52308" fill="#DFE7F5"/>
<rect x="20.8154" y="30.9077" width="5.04615" height="2.52308" fill="#DFE7F5"/>
<rect x="20.8154" y="30.9077" width="5.04615" height="2.52308" fill="#DFE7F5"/>
<rect x="20.8154" y="30.9077" width="5.04615" height="2.52308" fill="#DFE7F5"/>
<rect x="27.123" y="30.9077" width="5.04615" height="2.52308" fill="#DFE7F5"/>
<rect x="27.123" y="30.9077" width="5.04615" height="2.52308" fill="#DFE7F5"/>
<rect x="27.123" y="30.9077" width="5.04615" height="2.52308" fill="#DFE7F5"/>
<rect x="33.4307" y="30.9077" width="5.04615" height="2.52308" fill="#DFE7F5"/>
<rect x="33.4307" y="30.9077" width="5.04615" height="2.52308" fill="#DFE7F5"/>
<rect x="33.4307" y="30.9077" width="5.04615" height="2.52308" fill="#DFE7F5"/>
<defs>
<linearGradient id="paint0_linear_624_181" x1="1.57719" y1="17.9769" x2="40.3695" y2="17.6615" gradientUnits="userSpaceOnUse">
<stop stop-color="#FF641A"/>
<stop offset="0.47767" stop-color="#FF631B"/>
<stop offset="1" stop-color="#F03901"/>
</linearGradient>
</defs>
</svg>
